# xmcd
#
# Track frame offsets: 
#        150
#        15897
#        32245
#        45030
#        58312
#        72790
#        85825
#        96137
#        112342
#        140350
#        156835
#        171932
#        186892
#        201232
#        219747
#
# Disc length: 3189 seconds
#
# Revision: 2
# Processed by: cddbd v1.5.2PL0 Copyright (c) Steve Scherf et al.
# Submitted via: ExactAudioCopy v0.99pb4
#
DISCID=d00c730f
DTITLE=Loudon Wainwright III - Social Studies
DYEAR=1900
DGENRE=Folk
TTITLE0=What Gives
TTITLE1=Tonya's Twirls
TTITLE2=New Street People
TTITLE3=Carmine Street
TTITLE4=O.J.
TTITLE5=Leap Of Faith
TTITLE6=Conspiracies
TTITLE7=Christmas Morning
TTITLE8=Y2K
TTITLE9=Number One
TTITLE10=Bad Man
TTITLE11=Inaugural Blues
TTITLE12=Our Boy Bill
TTITLE13=Jesse Don't Like It
TTITLE14=Pretty Good Day
EXTD=
EXTT0=(1) The Beatles are reunited at last on December 12, 1995, with 
EXTT0=the release of "Free As A Bird," featuring the posthumous vocals
EXTT0=of John Lennon.\n(2) Thanks to the magic of modern technology, 
EXTT0=both Natalie Cole and Hank Williams Jr. have been able to make r
EXTT0=ecordings and videos with their legendary albeit dead fathers.
EXTT1=(3) Tonya Harding: Olympic figure skating real bad wannabe.\n(4)
EXTT1=Olga Korbut: Swwetheart Soviet 1972 Olympic Gold Medal Gymnast.
EXTT1=\n
EXTT2=(5) As of April 1999, cigarette billboard advertising banned in 
EXTT2=the United States.
EXTT3=(6) Written in New York during the Spring 1992, Los Angeles riot
EXTT3=s.
EXTT4=
EXTT5=(7) Written in 1992, prior to the election of William Jefferson 
EXTT5=Clinton as President of the United States.
EXTT6=Parental Discretion Advised
EXTT7=(8) Written in December of 1991 as the US, Great Britain and oth
EXTT7=er prepared for Operation Desert Storm.
EXTT8=
EXTT9=
EXTT10=(9) As of April 1999, the bombing of and sanctions against Iraq
EXTT10=continue.\n(10) Panamanian strongman: Manuel Noriega.\n(11) Pr
EXTT10=esident George Bush Sr.'s "cruel hoax" speech.
EXTT11=(12) Reunion day: the pre-inaugural celebration was called Reun
EXTT11=ion On The Mall.\n(13) George Bush Sr.'s "1000 Points Of Light"
EXTT11=speech...
EXTT12=
EXTT13=(14) North Carolina Senator Jesse Helms has long been a vocifer
EXTT13=ous opponent of the National Endowment for the Arts.
EXTT14=(15) In April 1992, the siege of Sarajevo began. At the time I 
EXTT14=was living close by in London.
PLAYORDER=
